<?xml version="1.0" standalone="no"?>
<!DOCTYPE svg PUBLIC "-//W3C//DTD SVG 20010904//EN"
 "http://www.w3.org/TR/2001/REC-SVG-20010904/DTD/svg10.dtd">
<svg version="1.0" xmlns="http://www.w3.org/2000/svg"
 width="260.000000pt" height="260.000000pt" viewBox="0 0 260.000000 260.000000"
 preserveAspectRatio="xMidYMid meet">
<metadata>
Created by potrace 1.11, written by Peter Selinger 2001-2013
</metadata>
<g transform="translate(0.000000,260.000000) scale(0.100000,-0.100000)"
fill="#000000" stroke="none">
<path d="M0 1300 l0 -1300 1300 0 1300 0 0 1300 0 1300 -1300 0 -1300 0 0
-1300z m1234 478 c3 -13 6 -33 6 -45 0 -21 -5 -23 -50 -23 -55 0 -54 -1 -39
53 9 33 13 37 43 37 26 0 35 -5 40 -22z m636 -493 c0 -398 0 -405 -20 -405
-17 0 -20 7 -20 48 0 51 -26 117 -56 144 -64 56 -151 58 -211 5 -45 -39 -63
-82 -63 -147 l0 -50 -230 0 -230 0 0 405 0 405 415 0 415 0 0 -405z m-850 -2
l0 -258 -31 37 c-53 65 -143 72 -213 17 -37 -29 -55 -69 -63 -139 l-6 -60 -33
0 -34 0 0 203 c0 111 4 208 9 216 5 8 28 17 52 20 l43 6 38 94 c20 51 43 100
49 107 8 10 37 14 100 14 l89 0 0 -257z m-50 -238 c99 -95 36 -255 -100 -255
-34 0 -48 7 -83 39 -41 39 -42 41 -42 106 0 65 1 67 43 107 42 39 46 40 98 36
43 -4 61 -11 84 -33z m767 15 c88 -53 88 -197 0 -250 -94 -58 -209 11 -209
125 0 84 58 145 137 145 22 0 54 -9 72 -20z"/>
<path d="M1360 1555 l0 -75 -75 0 -75 0 0 -105 0 -105 75 0 75 0 0 -75 0 -75
100 0 100 0 0 75 0 75 75 0 75 0 0 105 0 105 -75 0 -75 0 0 75 0 75 -100 0
-100 0 0 -75z"/>
<path d="M816 1423 c-16 -43 -31 -84 -33 -90 -4 -10 20 -13 101 -13 l106 0 0
90 0 90 -73 0 -72 0 -29 -77z"/>
</g>
</svg>
